<svg xmlns="http://www.w3.org/2000/svg" style="display:block" viewBox="0 0 626 626"><path d="m0 0 4.425-.015C8.392-.03 12.36-.03 16.326-.027q4.995 0 9.99-.009Q38.11-.05 49.906-.04q12.11.007 24.22-.028 10.455-.025 20.906-.02c4.146.002 8.292 0 12.438-.015q5.853-.017 11.706.003 2.13.004 4.258-.009c24.7-.135 49.004 7.59 66.992 24.946a390 390 0 0 1 4.382 4.439l2.3 2.273c5.868 6.13 9.782 13.278 13.7 20.727l1.473 2.64c9.685 18.838 8.123 41.165 7.977 61.713-.016 3.2-.006 6.398.004 9.597.007 3.135-.001 6.27-.014 9.405a771 771 0 0 0 0 4.415c.036 25.417-7.339 48.071-24.44 67.23l-2.309 2.597c-15.296 16.252-37.92 26.392-60.16 27.59-3.85.07-7.698.084-11.548.071l-4.405.011c-3.953.01-7.905.006-11.858 0-4.16-.006-8.318-.001-12.478.002q-10.474.005-20.947-.01-12.064-.015-24.127.003-10.404.014-20.809.005-6.193-.005-12.387.003-5.828.008-11.654-.01-2.123-.003-4.246.003c-27.85.08-51.454-8.086-71.76-27.515-18.456-19.12-27.206-43.284-26.906-69.57q.003-2.46 0-4.92.003-5.106.052-10.21c.04-4.314.044-8.627.037-12.941-.003-3.376.009-6.751.026-10.126q.01-2.384.01-4.767c.021-26.757 7.68-50.128 26.633-69.416l2.836-2.8 2.086-2.082c7.9-7.383 17.822-13.102 27.914-16.918l2.762-1.055C-25.12.81-12.99-.026 0 0" transform="translate(253.19 209.725)" style="fill:#00674b"/><path d="m0 0 3.008-.026c3.273-.023 6.546-.024 9.819-.023l6.844-.023q7.17-.018 14.34-.01c6.115.007 12.23-.024 18.345-.064 4.712-.026 9.423-.029 14.135-.025q3.381-.003 6.762-.03c3.157-.022 6.313-.012 9.47.006l2.802-.04c6.372.082 10.498 1.643 15.466 5.655 5.613 5.765 7.176 10.899 7.078 18.75l-.034 3.547-.044 2.703 2.76-.048c33.537-.502 33.537-.502 47.24 3.048l2.664.586c16.354 4.102 31.622 14.793 44.336 25.414l1.933 1.559c8.685 7.137 14.923 16.122 21.067 25.44l1.236 1.824c3.45 5.252 5.802 10.683 8.014 16.552l1.062 2.672c2.285 5.993 3.38 11.548 3.688 17.953l1.985-.093c6.734-.273 12.66.867 19.015 3.093 1 1 1 1 1.123 2.763l-.003 2.343.004 2.682-.01 2.964v3.104q-.003 5.105-.017 10.21l-.004 7.058q-.007 9.31-.025 18.619-.013 9.49-.02 18.982-.016 18.638-.048 37.275a4020 4020 0 0 1-6.781 2.277c-5.196 1.693-9.795 1.815-15.22 1.723l-.296 1.766c-3.453 18.932-12.31 34.076-23.703 49.234l-1.668 2.394-1.332 1.606h-2v2h-2v2h-2l-.637 1.703c-1.83 3.083-4.346 4.939-7.176 7.047l-1.754 1.32c-24.294 18.001-50.173 24.24-80.005 24.22l-5.8.02c-5.213.018-10.426.023-15.639.024q-4.9.003-9.8.011a19544 19544 0 0 1-34.279.026c-10.605-.002-21.21.02-31.815.051q-13.717.038-27.434.036c-5.444 0-10.888.005-16.332.026q-7.687.029-15.376.005a731 731 0 0 0-5.598.015c-33.052.202-61.185-12.289-85.355-34.504-2.538-2.533-4.798-5.173-7-8l-2.242-2.844c-4.477-5.812-8.458-11.605-11.758-18.156l-1.082-2.086c-4.447-8.694-8.918-17.985-8.918-27.914l-1.766.105c-7.688.254-12.229-1.104-20.234-3.105v-107c13.928-3.482 13.928-3.482 22-3l.312-3.875c2.231-18.933 13.768-36.769 25.688-51.125l2.117-2.793 1.883-2.207h2v-2c3.443-3.26 7.254-6.097 11-9l1.605-1.27c14.28-11.222 29.895-17.202 47.482-21.285a96 96 0 0 0 3.797-.966c3.424-.776 6.889-.6 10.381-.577l2.405.005c2.526.005 5.053.018 7.58.03l5.148.014q6.3.017 12.602.049l-.04-2.708-.03-3.55-.04-3.52c.223-6.554 3.206-10.716 7.317-15.644C-12.301.156-6.96-.022 0 0m-94.787 92.889c-14.446 16.452-23.195 36.91-23.415 58.903l-.025 2.161c-.025 2.349-.041 4.697-.056 7.045l-.016 2.456q-.04 6.45-.06 12.9-.02 5.284-.082 10.567-.073 6.429-.082 12.859a443 443 0 0 1-.045 4.845c-.212 14.92 2.577 29.12 9.246 42.607l1.017 2.097c8.502 16.84 22.133 29.709 38.296 39.09l2.48 1.493c15.105 8.371 32.28 9.657 49.165 9.67l4.394.014q5.936.019 11.87.024l7.44.012q11.672.02 23.343.027 13.41.007 26.822.05 10.409.034 20.816.034 6.198-.001 12.394.025 5.84.023 11.677.01 2.124-.002 4.248.013c25.018.166 49.565-7.864 67.605-25.594l2.746-2.777 2.465-2.434c17.945-18.681 24.037-43.754 23.968-68.957l.016-4.563q.013-4.744-.003-9.489-.015-4.797.02-9.593c.649-31.375.649-31.375-8.654-60.964l-1.18-2.361c-11.774-22.858-32.076-39.21-56.445-47.014-10.686-3.154-21.022-3.922-32.12-3.9l-4.414-.015c-3.967-.014-7.935-.014-11.902-.012q-4.995 0-9.988-.008-11.8-.016-23.6-.006a7148 7148 0 0 1-24.217-.027q-10.45-.026-20.901-.02c-4.145.001-8.29-.001-12.434-.015-35.402-.11-64.419 4.098-90.389 30.847" transform="translate(272.01 147.58)" style="fill:#7FFFD4"/><path d="M0 0c4.755 2.161 8.183 5.5 12 9l1.758 1.523c15.816 14.492 24.241 37.373 25.467 58.33.379 9.83.295 19.667.225 29.5-.017 3.2-.007 6.398.004 9.597.007 3.136-.001 6.27-.014 9.406a771 771 0 0 0 0 4.415C39.475 147.187 32.1 169.84 15 189l-2.309 2.598c-15.296 16.251-37.92 26.392-60.16 27.589-3.85.071-7.698.084-11.548.072l-4.405.01c-3.953.01-7.905.006-11.858 0-4.16-.005-8.318 0-12.478.002q-10.474.006-20.947-.01-12.064-.015-24.127.003-10.405.013-20.809.006-6.193-.007-12.387.003-5.828.007-11.655-.01-2.122-.004-4.245.002c-26.973.077-51.09-7.498-70.677-26.624-3.39-3.38-6.617-6.734-9.395-10.641l1-2 3.063 1.75 1.957 1.102c1.779 1.031 3.509 2.147 5.23 3.273 4.54 2.639 9.617 3.17 14.75 3.875v2c8.655 1.127 17.294 1.172 26.006 1.205l4.793.03q6.464.04 12.927.068c4.514.022 9.028.05 13.541.076q12.802.074 25.605.138 14.583.076 29.166.16 29.981.17 59.962.323v-2l3.148-.734c16.36-3.894 31.127-9.81 43.852-21.266l1-2h2v-2a150 150 0 0 1 3.43-3.445c6.602-6.42 6.602-6.42 10.57-14.555h2l.813-2.562C4 142 4 142 5.41 138.816c1.736-4.015 2.998-8.118 4.215-12.316l.656-2.184c.21-.712.418-1.425.633-2.16l.561-1.912c1.28-5.475 1.657-10.878 1.702-16.486l.02-2.083q.028-3.383.041-6.765l.013-2.36q.03-6.195.044-12.388c.011-4.22.046-8.438.085-12.657.027-3.283.035-6.567.038-9.85q.008-2.329.035-4.658C13.578 42.003 12.045 32.579 9 22q-.764-3.09-1.5-6.187C6.379 11.708 4.844 9.21 2 6 .75 2.688.75 2.688 0 0" transform="translate(434 228)" style="fill:#004526"/><path d="m0 0 3.008-.026c3.273-.023 6.546-.024 9.819-.023l6.844-.023q7.17-.018 14.34-.01c6.115.007 12.23-.024 18.345-.064 4.712-.026 9.423-.029 14.135-.025q3.381-.003 6.762-.03c3.157-.022 6.313-.012 9.47.006l2.802-.04c6.372.082 10.498 1.643 15.466 5.655 7.56 7.764 7 13.897 7 25h-133c0-16.782 0-16.782 7.207-25.422C-12.301.156-6.96-.022 0 0" transform="translate(272.01 147.58)" style="fill:#00674b"/><path d="m0 0 3.438.055L6 .125l-.214 1.863c-.63 5.81-.93 11.519-.915 17.36l-.006 2.61q-.004 4.223.002 8.444 0 2.967-.003 5.932-.002 6.197.006 12.393.006 7.905-.004 15.809-.004 6.12 0 12.238L4.864 82.6C4.826 96.89 4.826 96.89 6 111.125a624 624 0 0 1-6.562.125l-3.692.07C-8 111.125-8 111.125-15 109.125v-107C-9.171.668-5.685-.118 0 0" transform="translate(106 273.875)" style="fill:#00674b"/><path d="M0 0c1.812-.083 3.625-.14 5.438-.187l3.058-.106C12 0 12 0 21 3v105c-7.486 2.495-11.136 3.34-18.472 3.087L0 111l.214-1.689c1.083-9.889.93-19.787.919-29.721l.003-5.935q.002-6.193-.006-12.388-.006-7.905.004-15.812.004-6.12 0-12.238 0-2.915.002-5.828.003-4.083-.007-8.167l.007-2.388C1.114 11.175.646 5.62 0 0" transform="translate(515 274)" style="fill:#00674b"/><path d="M0 0c-4.094 11.041-12.13 20.529-19 30q-3.282 4.53-6.562 9.063l-1.688 2.33a624 624 0 0 0-9.312 13.232C-41.802 62.261-47.404 69.623-53 77c-1.935-.384-1.935-.384-4-1-4.714-8.39-3.97-19.789-1.621-28.797L-58 45l.59-2.39C-53.305 27.16-43.736 16.217-31 7l1.84-1.504C-24.818 2.04-21.54 1.292-16 1v-2C-4.783-3.189-4.783-3.189 0 0" transform="translate(240 238)" style="fill:#48d1cc"/><path d="M0 0v95c-12.812-6.406-20.498-18.769-25-32-4.52-14.15-1.96-29.785 4.688-42.875C-16.935 14.461-7.69 0 0 0" transform="translate(81 282)" style="fill:#00674b"/><path d="M0 0c13.69 9.126 22.364 19.72 26 36 .41 3.617.478 7.175.438 10.813l-.023 2.915C26.05 65.555 19.81 77.049 9.44 88.773 7 91 7 91 0 95z" transform="translate(546 282)" style="fill:#00674b"/><path d="M0 0c4.266.683 5.46 2.133 8.125 5.5 5.826 9.454 6.35 18.866 6.316 29.726-.003 2.137.02 4.273.045 6.41.052 11.298-1.375 21.665-8.673 30.739C3.125 74.5 3.125 74.5.188 75.25c-4.658-1.14-6.61-3.736-9.063-7.75-4.46-9.925-5.205-18.794-5.25-29.562l-.062-3.674c-.052-12.121 1.598-23.109 9.789-32.448C-2.875.5-2.875.5 0 0" transform="translate(373.875 282.5)" style="fill:#03f9fa"/><path d="M0 0c7.033 5.711 9.612 14.374 11 23 1.295 16.764 1.802 36.07-9 50-2.74 1.37-4.97 1.126-8 1l-2-1v-2h-2c-.814-1.404-1.6-2.824-2.375-4.25l-1.336-2.39c-3.513-9.155-3.677-19.038-3.664-28.735l.003-3.58C-17.23 21.591-16.116 11.828-10 3h2V1C-5.018-.491-3.315-.51 0 0" transform="translate(256 283)" style="fill:#04fafb"/><path d="M0 0h5v104H2v-2h-4v-2l-4-1q.16-18.528.34-37.056.083-8.602.157-17.205.072-8.295.156-16.592.031-3.171.056-6.342.037-4.429.086-8.857l.017-2.67C-5.114 4.228-5.114 4.228-4 2h4z" transform="translate(86 278)" style="fill:#0af7fa"/><path d="M0 0h4v2h4v2h2v96H6v2H2v2H0z" transform="translate(536 278)" style="fill:#02fafb"/><path d="M0 0h1v90l16-1V5h1l.031 3.419q.147 15.998.308 31.997.084 8.223.158 16.448.072 7.945.156 15.892a3856 3856 0 0 1 .056 6.043c.08 14.63.08 14.63 1.291 29.201-2.208.054-4.417.093-6.625.125l-3.727.07C6 108 6 108 0 106z" transform="translate(92 277)" style="fill:#00674b"/></svg>